<svg xmlns="http://www.w3.org/2000/svg" viewBox="0 0 196.52 96.84">
  <title>prollc-logo</title>
  <g>
    <path d="M4.85,66.2a9.05,9.05,0,0,0-.41-1.84A2.62,2.62,0,0,0,3.54,63a3,3,0,0,0-1.1-.39,12,12,0,0,0-1.81-.11l-.27-.21L.19,60.25.3,60a3.8,3.8,0,0,0,1.35.19H14.42a4.26,4.26,0,0,0,1.4-.19l.11.22-.17,2.06-.22.21a10.48,10.48,0,0,0-2,.14,2.7,2.7,0,0,0-1,.41c-.77.51-1.21,1.56-1.32,3.13,0,.36-.06.74-.08,1.12s0,.88,0,1.48V85.36c0,.89,0,1.64,0,2.24s0,1.14.06,1.59.06,1,.13,1.62.46,1.1,1.26,1.1h5.1c1.21,0,2.17,0,2.88-.08a3.93,3.93,0,0,0,1.67-.44,2.42,2.42,0,0,0,.93-1,9,9,0,0,0,.61-1.81l.16-.22h2.52l-1,7.54-.44.55a8.89,8.89,0,0,0-1.37-.08h-22a3.44,3.44,0,0,0-1.32.19l-.11-.22.17-2.09L.63,94a4.85,4.85,0,0,0,2.85-.6,3.69,3.69,0,0,0,.85-1.21,5.21,5.21,0,0,0,.52-1.91c0-.37.07-.87.09-1.51s0-1.31,0-2,0-1.35,0-2V74.59c0-2,0-3.77,0-5.29A29.29,29.29,0,0,0,4.85,66.2Z" style="fill: #002868"/>
    <path d="M33.85,66.2a9.05,9.05,0,0,0-.41-1.84,2.62,2.62,0,0,0-.9-1.34,3,3,0,0,0-1.1-.39,12,12,0,0,0-1.81-.11l-.27-.21-.17-2.06L29.3,60a3.8,3.8,0,0,0,1.35.19H43.42a4.26,4.26,0,0,0,1.4-.19l.11.22-.17,2.06-.22.21a10.48,10.48,0,0,0-2,.14,2.7,2.7,0,0,0-1,.41c-.77.51-1.21,1.56-1.32,3.13,0,.36-.06.74-.08,1.12s0,.88,0,1.48V85.36c0,.89,0,1.64,0,2.24s0,1.14.06,1.59.06,1,.13,1.62.46,1.1,1.26,1.1h5.1c1.21,0,2.17,0,2.88-.08a3.93,3.93,0,0,0,1.67-.44,2.42,2.42,0,0,0,.93-1,9,9,0,0,0,.61-1.81l.16-.22h2.52l-1,7.54-.44.55a8.89,8.89,0,0,0-1.37-.08h-22a3.44,3.44,0,0,0-1.32.19l-.11-.22.17-2.09.27-.23a4.85,4.85,0,0,0,2.85-.6,3.69,3.69,0,0,0,.85-1.21,5.21,5.21,0,0,0,.52-1.91c0-.37.07-.87.09-1.51s0-1.31.05-2,0-1.35,0-2V74.59c0-2,0-3.77,0-5.29A29.29,29.29,0,0,0,33.85,66.2Z" style="fill: #002868"/>
    <path d="M85.77,68.44a3.46,3.46,0,0,0-1-2,6.18,6.18,0,0,0-2.17-1.34,13.2,13.2,0,0,0-2.85-.72,23.2,23.2,0,0,0-3.1-.22c-3.25,0-5.77.83-7.56,2.47a10.56,10.56,0,0,0-3,5,23.32,23.32,0,0,0-.93,6.72,17.67,17.67,0,0,0,1,6.08,12.79,12.79,0,0,0,2.63,4.42,10.86,10.86,0,0,0,4,2.68,13.49,13.49,0,0,0,5,.91,34.32,34.32,0,0,0,5.46-.52,18.68,18.68,0,0,0,5.83-2L89.66,91l-1.31,2.41A23.2,23.2,0,0,1,82.62,96a21.33,21.33,0,0,1-5.9.82,20.33,20.33,0,0,1-7.45-1.31,16.3,16.3,0,0,1-5.73-3.75,17.2,17.2,0,0,1-3.7-5.8,20.36,20.36,0,0,1-1.32-7.48,22.26,22.26,0,0,1,1.18-7.25A16.25,16.25,0,0,1,69,61.32a19.88,19.88,0,0,1,8-1.48h2.58a20.24,20.24,0,0,1,3.12.25,25,25,0,0,1,3.32.72A20.52,20.52,0,0,1,89.17,62l.16.5-.71,6.16H85.93Z" style="fill: #002868"/>
  </g>
  <g>
    <rect x="101.48" y="59.67" width="95.04" height="7.4" style="fill: #e0162b"/>
    <rect x="101.48" y="89.28" width="95.04" height="7.4" style="fill: #e0162b"/>
    <path d="M146.72,50.39c-.58.65-1.2,1.27-1.83,1.88h51.63V44.86H150.71A34.54,34.54,0,0,1,146.72,50.39Z" style="fill: #e0162b"/>
    <rect x="101.48" y="74.47" width="95.04" height="7.4" style="fill: #e0162b"/>
    <path d="M146,.45c.16.17.34.35.5.53a34.23,34.23,0,0,1,4.79,6.87h45.19V.45Z" style="fill: #e0162b"/>
    <path d="M155.57,22.66h41V15.25H154.27A39.1,39.1,0,0,1,155.57,22.66Z" style="fill: #e0162b"/>
    <path d="M153.93,37.46h42.59v-7.4H155.45A39.68,39.68,0,0,1,153.93,37.46Z" style="fill: #e0162b"/>
  </g>
  <g>
    <path d="M22,51.43H13.39l-4.51,0H.3l-.15-.07.22-2.91.38-.31c.61,0,1.33,0,2.14-.12a4.15,4.15,0,0,0,1.92-.58A4.49,4.49,0,0,0,6,46a8.5,8.5,0,0,0,.76-3c0-.35,0-.78,0-1.26s0-1.08.07-1.8,0-1.58,0-2.6,0-2.3,0-3.83l0-16.84c0-1,0-2.18,0-3.49s-.06-2.59-.16-3.86a7,7,0,0,0-.74-2.95A5,5,0,0,0,4.68,5a2.5,2.5,0,0,0-1.42-.68c-.48,0-1.36-.08-2.64-.07L.24,4,0,1,.15.74C.51.74,1,.76,1.57.8L3.41.92l2,.12c.66,0,1.27.06,1.84.06l5.81,0h7.66a31.6,31.6,0,0,1,8.69,1,16,16,0,0,1,5.79,2.85,11.09,11.09,0,0,1,3.27,4.38,15.06,15.06,0,0,1,1,5.61,17.09,17.09,0,0,1-1.82,8.41A14.59,14.59,0,0,1,33,28.51a17.94,17.94,0,0,1-6.42,2.66,34.2,34.2,0,0,1-6.93.74l-4.28,0c0,1,0,2.09,0,3.21s0,2.21,0,3.26.06,2,.09,2.79.07,1.43.12,1.84a6.39,6.39,0,0,0,.77,3.09,6.21,6.21,0,0,0,1.08,1.26,2.52,2.52,0,0,0,1.42.69c.48,0,1.39.07,2.71.07l.31.3.24,2.91ZM19.21,26.25q6.43,0,9.18-2.94t2.73-8a6.81,6.81,0,0,0-3.19-6.16q-3.18-2-8.7-2H15.64c-.15,2.25-.25,3.92-.3,5s-.07,2.08-.06,2.94l0,8.35A12.62,12.62,0,0,0,15.38,25a1.28,1.28,0,0,0,.39.84,1.61,1.61,0,0,0,.88.34,12.86,12.86,0,0,0,1.57.07Z" style="fill: #002868"/>
    <path d="M66.44,51.49a4.2,4.2,0,0,0-1.72-.26H46.43a3.85,3.85,0,0,0-1.65.27l-.15-.3.22-3,.38-.31a8,8,0,0,0,4-.7q1.6-1.08,2-4.45c0-.86.08-2.2.1-4s0-3.63,0-5.46l-.05-16.82c0-1.78,0-3.2-.09-4.24s-.13-2.08-.24-3.1a16.37,16.37,0,0,0-.66-3,3.23,3.23,0,0,0-1-1.45,4.21,4.21,0,0,0-1.5-.53,16.16,16.16,0,0,0-2.64-.14l-.38-.31L44.48.87l.15-.3A24.08,24.08,0,0,0,48.57.9h3.1l5.82,0h8q9.12,0,13.79,3.36t4.7,10.1a14.71,14.71,0,0,1-2.77,8.75,23.09,23.09,0,0,1-8.28,6.86q2.61,3.9,4.42,6.35t3.11,3.91a38.49,38.49,0,0,0,3.3,3.44,21.54,21.54,0,0,0,3,2.29,12.4,12.4,0,0,0,3.11,1.37,17.75,17.75,0,0,0,3.6.61l.46.3.16,2.91-.15.5H85.74A12.19,12.19,0,0,1,78.5,49.4a28.91,28.91,0,0,1-6.8-7.61c-.57-.81-1.17-1.72-1.81-2.74s-1.28-2-1.92-3-1.24-1.94-1.81-2.85-1-1.69-1.38-2.35l-5,0c0,1.73,0,3.22,0,4.47s0,2.34,0,3.26.07,1.71.12,2.37.11,1.28.16,1.84c.21,2.35.78,3.82,1.7,4.43a3.32,3.32,0,0,0,1.38.53,17.08,17.08,0,0,0,2.83.15l.31.31.24,2.94ZM63.69,25.2q5.58,0,8.76-2.69A9.16,9.16,0,0,0,75.6,15.1q0-4.26-2.85-6.2C70.86,7.61,67.84,7,63.71,7h-3.6c-.14,2-.24,3.61-.29,4.73s-.07,2.18-.07,3.2l0,7.47a4.42,4.42,0,0,0,.39,2.21,1.57,1.57,0,0,0,1.45.61Z" style="fill: #002868"/>
    <path d="M120.11,0A25.28,25.28,0,0,1,130.6,2a22.23,22.23,0,0,1,7.75,5.6,24.84,24.84,0,0,1,4.81,8.22,29.15,29.15,0,0,1,1.68,9.79,30,30,0,0,1-1.58,9.76,24.23,24.23,0,0,1-4.76,8.33,23.78,23.78,0,0,1-7.87,5.8,25.7,25.7,0,0,1-10.9,2.21,25,25,0,0,1-10.5-2,21.85,21.85,0,0,1-7.55-5.53,23.42,23.42,0,0,1-4.58-8.1,30.93,30.93,0,0,1-1.56-9.76,30.63,30.63,0,0,1,1.65-10.22A24.85,24.85,0,0,1,102,7.75a22.49,22.49,0,0,1,7.72-5.65A25,25,0,0,1,120.11,0Zm.06,45.4a14.07,14.07,0,0,0,6.69-1.59,14.88,14.88,0,0,0,4.93-4.23,19.56,19.56,0,0,0,3-6.21,26.09,26.09,0,0,0,1-7.62,26,26,0,0,0-1.13-7.69,18.41,18.41,0,0,0-3.24-6.15,15.3,15.3,0,0,0-5.1-4.08,14.8,14.8,0,0,0-6.74-1.47,13.87,13.87,0,0,0-6.5,1.47,13.35,13.35,0,0,0-4.74,4.07,19,19,0,0,0-2.89,6.17,28.3,28.3,0,0,0-1,7.7A27.37,27.37,0,0,0,105.74,34,18.12,18.12,0,0,0,109,40.15,14.51,14.51,0,0,0,113.89,44,14.27,14.27,0,0,0,120.17,45.4Z" style="fill: #002868"/>
  </g>
</svg>
